<svg width="89" height="63" viewBox="0 0 89 63" fill="none" xmlns="http://www.w3.org/2000/svg">
<path fill-rule="evenodd" clip-rule="evenodd" d="M3.45085 0.889996C0.584521 2.04128 -0.552921 4.80253 0.916839 7.03886C2.38323 9.26849 8.37921 12.5714 15.8054 15.2387C18.8131 16.3196 20.6311 17.3283 19.8454 17.4818C19.0604 17.6352 17.6655 17.3594 16.746 16.8688C14.9262 15.8978 9.17088 15.6714 7.03902 16.4873C4.77843 17.3518 0.440659 24.5824 0.0511348 28.136C-0.495713 33.1311 3.34568 38.3618 11.4718 43.6872C15.0121 46.0066 18.7567 48.1196 19.7924 48.3812L21.6769 48.8567L20.0027 50.9781C16.5272 55.382 18.6482 59.7013 25.244 61.6533C27.6241 62.3585 30.8378 62.9346 32.3842 62.9346C35.8806 62.9346 43.5592 60.2983 46.8353 57.9731C48.1889 57.0121 50.4806 56.2264 51.9277 56.2264C55.0557 56.2264 59.4759 54.5066 61.4799 52.5093C63.1255 50.8691 63.3863 46.9658 61.9459 45.5303C61.4109 44.997 60.9086 42.5628 60.8295 40.1218C60.7395 37.3413 59.8915 34.0375 58.5597 31.2805C57.3903 28.8588 56.5599 26.8782 56.7147 26.8782C56.8687 26.8782 60.8657 28.5888 65.5964 30.6792C77.6615 36.0114 85.3098 38.2519 86.9142 36.9254C88.9047 35.2794 88.3907 34.1516 84.5804 31.8012C79.9482 28.9435 73.6493 26.6728 61.4412 23.4579C52.5688 21.121 51.1747 20.4904 47.775 17.2764C35.3826 5.56055 12.7018 -2.82465 3.45085 0.889996ZM17.101 5.53372C19.8588 6.24646 24.7056 8.01574 27.8714 9.46638C34.2308 12.3802 42.177 17.6562 40.2007 17.652C36.0985 17.6436 8.04017 7.70716 5.74004 5.44819C4.66401 4.39166 4.98707 4.23821 8.29761 4.23821C10.3815 4.23821 14.3432 4.82098 17.101 5.53372ZM19.3187 23.5434C20.1869 24.7073 21.1351 27.1214 21.4262 28.9075L21.9545 32.155L17.8077 29.9053C15.5269 28.6685 12.3847 26.4674 10.8257 25.015C8.23619 22.6035 8.1285 22.3175 9.58396 21.7297C12.8398 20.4158 17.6546 21.313 19.3187 23.5434ZM27.2825 21.8354C27.81 21.8421 28.478 22.7837 28.7666 23.9283C29.0551 25.0729 30.4584 27.3344 31.8853 28.9544L34.4807 31.901L31.7473 31.3559C29.644 30.9367 28.7539 31.1648 27.8866 32.3471C26.4033 34.3687 25.6714 33.4967 25.2726 29.232C25.0934 27.3101 24.3657 24.6193 23.6573 23.2533C22.3903 20.8116 22.4021 20.778 24.3455 21.2971C25.4325 21.5872 26.7542 21.8295 27.2825 21.8354ZM42.3065 26.8875C50.1492 30.613 54.8958 36.0122 50.9921 36.7669C49.4282 37.0696 38.0361 29.4961 34.6734 25.9173L32.2109 23.2969L34.7348 23.8931C36.1229 24.221 39.5302 25.5685 42.3065 26.8875ZM49.0311 25.192C49.3255 25.6666 48.9882 25.8075 48.2394 25.5215C46.7823 24.9639 46.5156 24.3627 47.7254 24.3627C48.1612 24.3627 48.7484 24.7358 49.0311 25.192ZM16.852 34.1977C19.7469 35.5745 24.2252 37.3128 26.8046 38.0591C29.3841 38.8062 32.205 40.2006 33.074 41.1574C33.9439 42.115 36.8927 44.3874 39.6278 46.2078L44.6016 49.5183H41.3171C33.4434 49.5183 16.3935 42.629 9.39467 36.6185C5.62562 33.3826 2.76182 28.3498 3.54003 26.3298C3.92282 25.3354 4.8491 25.7798 7.80881 28.3767C9.88767 30.2005 13.9571 32.82 16.852 34.1977ZM56.872 40.7314C56.1149 41.4853 54.3498 39.5466 54.9345 38.6033C55.4174 37.8251 55.7817 37.9232 56.3816 38.9923C56.8224 39.7772 57.0437 40.5604 56.872 40.7314ZM50.4117 43.8071C51.3758 45.1563 51.9529 46.4719 51.6938 46.7302C51.1831 47.2392 40.2033 42.3481 40.2033 41.6119C40.2033 41.3653 42.1054 41.206 44.4308 41.258C48.0913 41.3402 48.8939 41.6823 50.4117 43.8071ZM60.3946 49.0772C60.3946 50.4549 56.2612 52.874 53.9165 52.869C52.8489 52.8673 53.1821 52.3919 55.0447 51.2599C56.4976 50.3769 57.9396 49.2466 58.2492 48.7477C59.0645 47.432 60.3946 47.6366 60.3946 49.0772ZM32.0132 52.5361C43.0814 55.3653 44.4098 55.7711 44.4098 56.3187C44.4098 57.6351 37.2469 59.5805 32.4044 59.5788C23.9577 59.5772 18.697 55.9791 22.1329 52.5546C23.8382 50.8557 25.4266 50.8524 32.0132 52.5361Z" fill="#212121"/>
</svg>
